<?xml version="1.0" encoding="iso-8859-1"?>
<!-- Generator: Adobe Illustrator 16.0.0, SVG Export Plug-In . SVG Version: 6.00 Build 0)  -->
<!DOCTYPE svg PUBLIC "-//W3C//DTD SVG 1.1//EN" "http://www.w3.org/Graphics/SVG/1.1/DTD/svg11.dtd">
<svg version="1.1" id="Capa_1" xmlns="http://www.w3.org/2000/svg" xmlns:xlink="http://www.w3.org/1999/xlink" x="0px" y="0px"
	 width="592.875px" height="592.875px" viewBox="0 0 592.875 592.875" style="enable-background:new 0 0 592.875 592.875;"
	 xml:space="preserve">
<g>
	<g>
		<path fill="#fff" d="M181.688,114.75h172.125c9.562,0,19.125-7.65,19.125-19.125V76.5c0-11.475-7.65-19.125-19.125-19.125h-38.25V38.25
			c0-21.038-17.213-38.25-38.25-38.25h-19.125c-21.038,0-38.25,17.212-38.25,38.25v19.125h-38.25
			c-11.475,0-19.125,7.65-19.125,19.125v19.125C162.562,107.1,170.212,114.75,181.688,114.75z M267.75,38.25
			c5.737,0,9.562,3.825,9.562,9.562s-3.825,9.562-9.562,9.562s-9.562-3.825-9.562-9.562S262.013,38.25,267.75,38.25z"/>
		<path fill="#fff" d="M401.625,382.5c-57.375,0-105.188,47.812-105.188,105.188s47.812,105.188,105.188,105.188s105.188-47.812,105.188-105.188
			S459,382.5,401.625,382.5z M468.562,497.25h-57.375v57.375h-19.125V497.25h-57.375v-19.125h57.375V420.75h19.125v57.375h57.375
			V497.25z"/>
		<path fill="#fff" d="M401.625,363.375c17.213,0,32.513,3.825,47.812,9.562V114.75c0-21.038-17.213-38.25-38.25-38.25h-19.125l0,0v19.125
			c0,21.038-17.213,38.25-38.25,38.25H181.688c-21.038,0-38.25-17.212-38.25-38.25V76.5l0,0h-19.125
			c-21.038,0-38.25,17.212-38.25,38.25v401.625c0,21.037,17.212,38.25,38.25,38.25h172.125
			c-11.475-19.125-19.125-42.075-19.125-66.938C277.312,418.838,332.775,363.375,401.625,363.375z"/>
	</g>
</g>
</svg>
